<svg width = '36px' xmlns="http://www.w3.org/2000/svg" data-name="Layer 1" viewBox="0 0 512 512"><path fill="#ffbc5b" d="M447.55957,501.999V347.31989a60,60,0,0,0-38.01-55.82508l-97.01835-38.21639a20,20,0,0,1-12.67-18.60836V215.7627H212.13892v18.90736a20,20,0,0,1-12.67,18.60836l-97.01846,38.21639a60,60,0,0,0-38.01,55.8251V501.999a10,10,0,0,0,10,10H437.55957A10,10,0,0,0,447.55957,501.999Z"/><path fill="#f9beac" d="M312.53125,253.27832a19.99953,19.99953,0,0,1-12.66992-18.6084V215.7627H212.13892v18.90722a19.99965,19.99965,0,0,1-12.67005,18.6084,51.573,51.573,0,0,0,14.63233,22.5083c16.95385,15.01807,38.15051,12.92529,41.8988,12.4917a65.985,65.985,0,0,0,56.53125-35Z"/><path fill="#e58a7b" d="M301.144,255.67627l6.90332-4.88379a19.99046,19.99046,0,0,1-8.186-16.12256V215.7627H212.13892v18.90722a19.9583,19.9583,0,0,1-2.48121,9.62549,80.7977,80.7977,0,0,0,7.08057,5.63867l8.11768,5.74219a66.04814,66.04814,0,0,0,76.28808,0Z"/><path fill="#f9beac" d="M302.262,231.59825l-8.118,5.7427A66.049,66.049,0,0,1,256,249.46867h0A66.049,66.049,0,0,1,217.856,237.341l-8.11774-5.74248a80.73661,80.73661,0,0,1-34.11049-65.912l-.00009-64.18733H336.37234v64.187A80.73666,80.73666,0,0,1,302.262,231.59825Z"/><path fill="#343c4a" d="M336.37231 153.148l-28.45605 20.1123a32.01871 32.01871 0 0 1-29.18774 4.02784L256 169.22314l-22.72864 8.065a32.01852 32.01852 0 0 1-29.18762-4.02784l-28.45605-20.11181v12.53808a80.7375 80.7375 0 0 0 34.11059 65.91211l8.11768 5.74219A66.04849 66.04849 0 0 0 256 249.46875h0a66.04849 66.04849 0 0 0 38.144-12.12793l8.11792-5.74268a80.73626 80.73626 0 0 0 34.11035-65.9121zM336.37234 134.6539h-4a10 10 0 0 1-10-10V101.4992h14zM175.62766 134.6539h4a10 10 0 0 0 10-10V101.4992h-14z"/><path fill="#f9beac" d="M383.88,460.98354h63.67957a0,0,0,0,1,0,0V501.999a10,10,0,0,1-10,10H383.88a0,0,0,0,1,0,0V460.98354A0,0,0,0,1,383.88,460.98354Z"/><rect width="63.68" height="23.647" x="383.88" y="446.984" fill="#f96263"/><path fill="#f9beac" d="M64.44043,460.98354H128.12a0,0,0,0,1,0,0V511.999a0,0,0,0,1,0,0H74.44043a10,10,0,0,1-10-10V460.98354A0,0,0,0,1,64.44043,460.98354Z"/><rect width="63.68" height="23.647" x="64.44" y="446.984" fill="#f96263"/><path fill="#e58a7b" d="M336.37239,142.54887h0V101.4992h5.7301a17.65978,17.65978,0,0,1,17.65977,17.65973v0A23.38984,23.38984,0,0,1,336.37239,142.54887Z"/><path fill="#e58a7b" d="M152.23776,101.4992h.00008A23.38985,23.38985,0,0,1,175.62769,124.889v.00006a17.65977,17.65977,0,0,1-17.65977,17.65977h-5.73016a0,0,0,0,1,0,0V101.4992A0,0,0,0,1,152.23776,101.4992Z" transform="rotate(180 163.933 122.024)"/><path fill="#f96263" d="M256,297.999a102.80328,102.80328,0,0,0,78.29053-36.14941l-20.9524-8.25342a81.94209,81.94209,0,0,1-114.67626,0l-20.95252,8.25342A102.80372,102.80372,0,0,0,256,297.999Z"/><path fill="#596381" d="M341.3169 259.11877l-16.49056-5.33945a5 5 0 0 0-6.4535 3.82971L286.29257 427.61329a3.92866 3.92866 0 0 0 3.41169 4.63593l19.0691 2.18881a3.92867 3.92867 0 0 0 4.3077-3.17015l31.60785-166.4595A5 5 0 0 0 341.3169 259.11877zM170.6831 259.11877l16.49056-5.33945a5 5 0 0 1 6.4535 3.82971l32.08027 170.00426a3.92866 3.92866 0 0 1-3.41169 4.63593l-19.0691 2.18881a3.92867 3.92867 0 0 1-4.3077-3.17015l-31.60785-166.4595A5 5 0 0 1 170.6831 259.11877z"/><path fill="#343c4a" d="M297.628,418.04427l-2.25606-7.09049a10.69862,10.69862,0,0,0-10.195-7.45476H226.823a10.69862,10.69862,0,0,0-10.195,7.45476l-2.25606,7.09049a10.69861,10.69861,0,0,1-10.195,7.45475H193.19862A10.69862,10.69862,0,0,0,182.5,436.19764v61.60277A10.69861,10.69861,0,0,0,193.19862,508.499H318.8a10.7,10.7,0,0,0,10.7-10.7V436.19764A10.69862,10.69862,0,0,0,318.80138,425.499H307.823A10.69861,10.69861,0,0,1,297.628,418.04427Z"/><path fill="#596381" d="M182.5,462.999h147a0,0,0,0,1,0,0v34.8a10.7,10.7,0,0,1-10.7,10.7H193.2a10.7,10.7,0,0,1-10.7-10.7v-34.8A0,0,0,0,1,182.5,462.999Z"/><circle cx="256" cy="462.999" r="29.5" fill="#d2e9ff"/><circle cx="256" cy="462.999" r="8.5" fill="#96aff4"/><path fill="#d34342" d="M114.82226,74.69768h74.82421a0,0,0,0,1,0,0V101.4992a0,0,0,0,1,0,0H95.47655a0,0,0,0,1,0,0V94.04339A19.34571,19.34571,0,0,1,114.82226,74.69768Z"/><path fill="#f96263" d="M222.95742,3.499h66.08516a47.32976,47.32976,0,0,1,47.32976,47.32976V101.4992a0,0,0,0,1,0,0H175.62766a0,0,0,0,1,0,0V50.82878A47.32976,47.32976,0,0,1,222.95742,3.499Z"/><path fill="#343c4a" d="M231.7241,82.52805h48.5518a3,3,0,0,1,3,3V101.4992a0,0,0,0,1,0,0H228.7241a0,0,0,0,1,0,0V85.52805A3,3,0,0,1,231.7241,82.52805Z"/><path fill="#e58a7b" d="M268.70444,160.88238v4.752A12.70443,12.70443,0,0,1,256,178.33878h-.00325a12.7012,12.7012,0,0,1-12.7012-12.7012v-4.7552a4,4,0,0,1,4-4h17.40888A4,4,0,0,1,268.70444,160.88238Z"/><path d="M274,414H238a3.5,3.5,0,0,0,0,7h36a3.5,3.5,0,0,0,0-7Zm-69.29175,25.35742a3.5,3.5,0,1,0,3.5,3.5A3.50424,3.50424,0,0,0,204.70825,439.35742ZM410.833,288.24316l-62.56909-24.64892a8.534,8.534,0,0,0-5.86548-7.80371L325.9082,250.4502a8.50643,8.50643,0,0,0-6.96.77539,8.594,8.594,0,0,0-.76953.51611l-4.36523-1.71826a16.39721,16.39721,0,0,1-10.437-14.9253l.90674-.6416A84.35772,84.35772,0,0,0,339.87207,165.687V145.81445a26.92553,26.92553,0,0,0,23.39063-26.65478A21.18374,21.18374,0,0,0,342.10254,98h-2.23047V50.82959A50.887,50.887,0,0,0,289.043,0H222.957a50.887,50.887,0,0,0-50.8291,50.82959V71.2002H114.82031A22.86594,22.86594,0,0,0,91.98047,94.04v7.46a3.50017,3.50017,0,0,0,3.5,3.5h58.73828a21.05039,21.05039,0,0,0-5.48145,14.16016,26.925,26.925,0,0,0,23.39063,26.65429V165.6875A84.35772,84.35772,0,0,0,207.7168,234.457l.90674.6416a16.39612,16.39612,0,0,1-10.436,14.92432l-4.36633,1.71875a8.48678,8.48678,0,0,0-7.72937-1.2915L169.59375,255.793a8.5299,8.5299,0,0,0-5.85754,7.80127L101.168,288.24316a63.1378,63.1378,0,0,0-40.22754,59.07715V508.5a3.5,3.5,0,1,0,7,0V474.13184h56.67969V508.5a3.5,3.5,0,0,0,7,0V435.32617a3.5,3.5,0,0,0-7,0v8.15821H67.94043V347.32031a56.17484,56.17484,0,0,1,35.793-52.56347l61.12744-24.08106L193.59326,422h-.395A14.21411,14.21411,0,0,0,179,436.19824v61.60352A14.21411,14.21411,0,0,0,193.19824,512H318.7998A14.2162,14.2162,0,0,0,333,497.7998V436.19824A14.21411,14.21411,0,0,0,318.80176,422h-.395l28.73193-151.32422,61.12891,24.08106a56.17538,56.17538,0,0,1,35.792,52.56347v96.16407H387.37988v-8.15821a3.5,3.5,0,0,0-7,0V508.5a3.5,3.5,0,0,0,7,0V474.13184h56.67969V508.5a3.5,3.5,0,0,0,7,0V347.32031A63.13834,63.13834,0,0,0,410.833,288.24316ZM339.87207,105h2.23047a14.17629,14.17629,0,0,1,14.16016,14.16016,19.90887,19.90887,0,0,1-16.39063,19.562ZM172.12793,138.72217a19.90887,19.90887,0,0,1-16.39063-19.562A14.17629,14.17629,0,0,1,169.89746,105h2.23047Zm0-40.72217H98.98047V94.04A15.85776,15.85776,0,0,1,114.82031,78.2002h57.30762ZM124.62012,450.48438v16.64746H67.94043V450.48438Zm208.252-319.32959h-.5a6.50753,6.50753,0,0,1-6.5-6.5V105h7ZM179.12793,74.71973l.002-.01953-.002-.01954V50.82959A43.87943,43.87943,0,0,1,222.957,7H289.043a43.87943,43.87943,0,0,1,43.8291,43.82959V98h-46.0957V85.52881a6.50753,6.50753,0,0,0-6.5-6.5H231.72363a6.50753,6.50753,0,0,0-6.5,6.5V98h-46.0957ZM279.77637,86.02881V98H232.22363V86.02881ZM179.12793,105h7v19.65479a6.50753,6.50753,0,0,1-6.5,6.5h-.5Zm0,33.15479h.5a13.51508,13.51508,0,0,0,13.5-13.5V105H318.87207v19.65479a13.51508,13.51508,0,0,0,13.5,13.5h.5v13.18164l-26.97266,19.06543a28.53962,28.53962,0,0,1-25.999,3.58935l-8.605-3.05225a16.09305,16.09305,0,0,0,.90869-5.30029v-5.52978a3.5,3.5,0,0,0-7,0v5.52978a9.2041,9.2041,0,0,1-18.4082,0v-5.52978a3.5,3.5,0,0,0-7,0v5.52978a16.09084,16.09084,0,0,0,.90869,5.30029l-8.606,3.05274a28.54265,28.54265,0,0,1-25.998-3.58984l-26.97266-19.06543Zm0,27.53271v-5.77881l22.93164,16.209a35.54348,35.54348,0,0,0,32.37988,4.47119l10.049-3.56446a16.16747,16.16747,0,0,0,23.02332,0l10.04785,3.564a35.54266,35.54266,0,0,0,32.38086-4.4707l22.93164-16.209V165.687a77.34669,77.34669,0,0,1-32.63184,63.05469l-8.11816,5.74268a62.54564,62.54564,0,0,1-72.24414,0l-8.11816-5.74219A77.34669,77.34669,0,0,1,179.12793,165.6875Zm35.97217,73.99219.73486.51953a69.54759,69.54759,0,0,0,80.33008,0l.73486-.51953a23.2781,23.2781,0,0,0,10.30371,14.7832,78.37923,78.37923,0,0,1-102.40735,0A23.27781,23.27781,0,0,0,215.1001,239.67969Zm-17.21216,17.98437a85.35869,85.35869,0,0,0,116.22412,0l.63867.251-3.76489,19.94922a99.18937,99.18937,0,0,1-109.97144,0L197.24951,257.915ZM309.22,287.2207,287.885,400.26758A14.31081,14.31081,0,0,0,285.17676,400H226.82324a14.31081,14.31081,0,0,0-2.70825.26758L202.78027,287.22119A106.31809,106.31809,0,0,0,309.22,287.2207ZM170.74805,264.1582a1.50948,1.50948,0,0,1,1.00976-1.708l16.49024-5.34082a1.5033,1.5033,0,0,1,1.94238,1.15039l27.39233,145.14355a14.18942,14.18942,0,0,0-4.28979,6.49023l-2.25586,7.08985A7.17431,7.17431,0,0,1,204.17676,422h-3.4585ZM326,497.7998A7.209,7.209,0,0,1,318.7998,505H193.19824A7.20687,7.20687,0,0,1,186,497.80176V466.5h37.18738a32.99854,32.99854,0,0,0,65.62512,0H326ZM230,463a26,26,0,1,1,26,26A26.02885,26.02885,0,0,1,230,463Zm88.80176-34A7.20687,7.20687,0,0,1,326,436.19824V459.5H288.8125a32.99854,32.99854,0,0,0-65.62512,0H186V436.19824A7.20687,7.20687,0,0,1,193.19824,429h4.60706l.01111.001.01025-.001h6.3501a14.1488,14.1488,0,0,0,13.53027-9.89355l2.25586-7.08985a7.16933,7.16933,0,0,1,3.39587-4.1206l.027-.01661A7.18445,7.18445,0,0,1,226.82324,407h58.35352a7.1841,7.1841,0,0,1,3.4375.87939l.02685.01661a7.1695,7.1695,0,0,1,3.396,4.1206l2.25586,7.08985A14.1488,14.1488,0,0,0,307.82324,429h6.3501l.01025.001.01123-.001ZM341.252,264.15625,311.28174,422h-3.4585a7.17431,7.17431,0,0,1-6.86035-5.0166l-2.25586-7.08985a14.1878,14.1878,0,0,0-4.28979-6.49023l27.39233-145.14258a1.503,1.503,0,0,1,1.94238-1.15136l16.48243,5.33789A1.51108,1.51108,0,0,1,341.252,264.15625ZM444.05957,467.13184H387.37988V450.48438h56.67969ZM303.18359,496h4.84864a3.5,3.5,0,0,0,0-7h-4.84864a3.5,3.5,0,0,0,0,7ZM256,475a12,12,0,1,0-12-12A12.01312,12.01312,0,0,0,256,475Zm0-17a5,5,0,1,1-5,5A5.00588,5.00588,0,0,1,256,458ZM210.78223,121.19287a27.21028,27.21028,0,0,1,20.70507.001,3.50014,3.50014,0,0,0,2.6543-6.47754,34.20807,34.20807,0,0,0-26.01758.001,3.5,3.5,0,1,0,2.65821,6.47558Zm29.499,79.95264a36.94506,36.94506,0,0,0,15.7207,3.53662h.11035a36.9517,36.9517,0,0,0,15.60645-3.53662,3.50031,3.50031,0,0,0-2.998-6.32617,29.89038,29.89038,0,0,1-12.62988,2.86279,30.49973,30.49973,0,0,1-12.81152-2.86279,3.50031,3.50031,0,0,0-2.99805,6.32617Zm50.585-76.41553a3.50017,3.50017,0,0,0-3.5,3.5v7.43311a3.5,3.5,0,0,0,7,0V128.23A3.50017,3.50017,0,0,0,290.86621,124.73Zm-10.35156-3.53711a27.2103,27.2103,0,0,1,20.70508.001,3.50014,3.50014,0,0,0,2.65429-6.47754,34.208,34.208,0,0,0-26.01757.001,3.5,3.5,0,1,0,2.6582,6.47558ZM221.13379,124.73a3.50017,3.50017,0,0,0-3.5,3.5v7.43311a3.5,3.5,0,0,0,7,0V128.23A3.50017,3.50017,0,0,0,221.13379,124.73Z"/></svg>